<?xml version="1.0" encoding="UTF-8"?>
<svg version="1.1" xmlns="http://www.w3.org/2000/svg" width="512" height="512">
<path d="M0 0 C0.79341797 0.00215515 1.58683594 0.0043103 2.40429688 0.00653076 C14.25457248 0.0581549 25.76548934 0.40334898 37.3125 3.3125 C38.48377441 3.60253906 38.48377441 3.60253906 39.67871094 3.8984375 C64.49526036 10.25712632 88.09799887 21.17854995 107.3125 38.3125 C108.61960937 39.4571875 108.61960937 39.4571875 109.953125 40.625 C112.43522825 42.82470827 114.88086476 45.05725281 117.3125 47.3125 C118.20001953 48.11880859 118.20001953 48.11880859 119.10546875 48.94140625 C133.51951398 62.60222346 144.09858567 80.40456665 152.3125 98.3125 C152.73208984 99.22636475 152.73208984 99.22636475 153.16015625 100.15869141 C170.50688718 138.73840761 170.28804125 184.82571723 155.5625 224.125 C146.43490528 247.38119815 132.99525046 266.91918136 115.1875 284.375 C87.26441227 312.07107075 76.38419355 347.12602142 76.15807438 385.71730042 C76.15219362 387.1930196 76.14746871 388.66874379 76.14383507 390.14447021 C76.13649182 392.51062104 76.12070579 394.87658469 76.10249329 397.24267578 C76.0508149 403.95798316 76.00209196 410.67316946 75.98657227 417.38867188 C75.97638651 421.53000007 75.94682224 425.67082368 75.90525246 429.81195068 C75.89311156 431.36810461 75.88778948 432.92433014 75.89005089 434.48052979 C75.90471961 447.85566 73.99049896 460.44348105 67.75 472.5 C67.41411865 473.15871094 67.0782373 473.81742187 66.73217773 474.49609375 C62.98331214 481.46852771 57.97174953 486.84952502 52.3125 492.3125 C51.60609375 493.04984375 50.8996875 493.7871875 50.171875 494.546875 C37.02838023 507.48970573 18.27396915 512.63466367 0.3125 512.8125 C-19.60618561 512.61528529 -37.90326795 506.2908047 -52.078125 492.015625 C-52.93921875 491.12359375 -53.8003125 490.2315625 -54.6875 489.3125 C-55.79351562 488.25289063 -55.79351562 488.25289063 -56.921875 487.171875 C-61.2223607 482.8047151 -64.15727243 478.03711588 -66.9375 472.625 C-67.25493164 472.01438721 -67.57236328 471.40377441 -67.89941406 470.7746582 C-73.88866629 458.44819772 -75.27270022 446.71205048 -75.2265625 433.27734375 C-75.23651104 431.66612946 -75.24846767 430.05492648 -75.26229858 428.44374084 C-75.29438079 424.23181275 -75.30502307 420.02014364 -75.30914307 415.80810547 C-75.31899871 408.29774472 -75.36012307 400.78750568 -75.4140625 393.27734375 C-75.41947933 392.47795128 -75.42489616 391.67855881 -75.43047714 390.85494232 C-75.77614368 346.07909414 -87.57770218 313.00336378 -118.6875 280.3125 C-119.97499096 279.09971838 -121.26627522 277.89094237 -122.5625 276.6875 C-151.35181004 248.19376809 -165.33322316 204.87604152 -165.71484375 165.1875 C-165.44970412 137.30996192 -158.96773832 110.78843541 -145.6875 86.3125 C-145.36523438 85.70422363 -145.04296875 85.09594727 -144.7109375 84.46923828 C-131.54580215 59.68426548 -111.28849636 39.2584812 -87.6875 24.3125 C-87.04828613 23.90757324 -86.40907227 23.50264648 -85.75048828 23.08544922 C-71.81382943 14.42018763 -56.56014141 8.6923952 -40.75 4.4375 C-40.04254639 4.24639648 -39.33509277 4.05529297 -38.60620117 3.85839844 C-25.82455401 0.63483163 -13.1060674 -0.06415797 0 0 Z M-96.22167969 70.82373047 C-120.98485351 95.97460222 -134.30113558 129.71254474 -134.71484375 164.89990234 C-134.29533977 201.91363724 -119.73063422 235.77759464 -93.28515625 261.6640625 C-92.46917969 262.45554687 -91.65320313 263.24703125 -90.8125 264.0625 C-67.25663797 287.43575844 -52.9537098 318.03112533 -46.6875 350.3125 C-45.6975 355.2625 -45.6975 355.2625 -44.6875 360.3125 C-14.9875 360.3125 14.7125 360.3125 45.3125 360.3125 C45.9725 357.0125 46.6325 353.7125 47.3125 350.3125 C55.05108103 313.51906473 71.41046405 283.07850291 98.8125 257 C113.80877644 242.03040733 124.98331565 221.74803369 130.3125 201.3125 C130.50424805 200.6309082 130.69599609 199.94931641 130.89355469 199.24707031 C140.37504774 164.77031989 134.04992223 127.07374117 116.69140625 96.24609375 C113.10699178 90.16161306 108.89287581 84.67375851 104.3125 79.3125 C103.66692139 78.54945557 103.66692139 78.54945557 103.00830078 77.77099609 C79.4587874 50.22234399 46.59865918 33.96518751 10.53857422 30.72021484 C-29.50604462 27.71430922 -67.72262764 42.84198795 -96.22167969 70.82373047 Z M-44.6875 390.3125 C-44.72875 397.799375 -44.77 405.28625 -44.8125 413 C-44.83070801 415.33537842 -44.84891602 417.67075684 -44.86767578 420.0769043 C-44.95775552 439.40271588 -44.21347465 455.37804999 -30.109375 470.12109375 C-26.29641577 473.57120686 -22.30209402 476.07175963 -17.6875 478.3125 C-16.6975 478.82103516 -16.6975 478.82103516 -15.6875 479.33984375 C-6.6389405 483.17487776 6.18141206 482.78660792 15.375 479.6875 C27.38050193 474.40874495 37.44147943 465.76434165 42.29443359 453.32226562 C46.65139227 440.44154943 45.54191896 426.39288615 45.4375 413 C45.39625 405.513125 45.355 398.02625 45.3125 390.3125 C15.6125 390.3125 -14.0875 390.3125 -44.6875 390.3125 Z " fill="#000000" transform="translate(255.6875,-0.3125)"/>
<path d="M0 0 C9.47463573 6.94911196 16.95161439 16.64389635 19.421875 28.35546875 C20.70257323 42.1918731 19.63381819 54.47169339 11.296875 66.04296875 C7.68390248 70.38487432 3.44573276 73.9535671 -0.9296875 77.5078125 C-7.76498993 84.85727485 -9.37233331 92.7144637 -9.890625 102.48046875 C-10.1175 106.06921875 -10.344375 109.65796875 -10.578125 113.35546875 C-20.478125 113.35546875 -30.378125 113.35546875 -40.578125 113.35546875 C-41.11228 91.88243757 -41.3739166 74.31269371 -26.08203125 57.6328125 C-23.62535359 55.15423281 -21.11797651 52.74831921 -18.578125 50.35546875 C-13.39153097 45.34821679 -13.39153097 45.34821679 -12.328125 38.54296875 C-12.38301959 34.30998582 -12.69214528 31.63951463 -15.578125 28.35546875 C-19.45800872 24.94587397 -23.25153656 24.90095681 -28.20703125 25.0703125 C-31.36884514 25.45056359 -33.18414024 26.25166396 -35.578125 28.35546875 C-39.60147648 33.81573148 -39.75599551 39.58613143 -40.140625 46.16796875 C-40.285 48.53984375 -40.429375 50.91171875 -40.578125 53.35546875 C-50.478125 53.35546875 -60.378125 53.35546875 -70.578125 53.35546875 C-71.11641486 33.22342813 -71.33606825 19.83793717 -56.99609375 4.68359375 C-41.74951 -9.70977485 -17.37512065 -11.0832209 0 0 Z " fill="#000000" transform="translate(281.578125,96.64453125)"/>
<path d="M0 0 C3.52344644 1.6586188 5.79901878 3.56657308 8.546875 6.3515625 C9.81337891 7.62773438 9.81337891 7.62773438 11.10546875 8.9296875 C12.41451172 10.26386719 12.41451172 10.26386719 13.75 11.625 C14.63816406 12.5221875 15.52632813 13.419375 16.44140625 14.34375 C18.63216969 16.55807004 20.81812763 18.77692435 23 21 C21.51657 24.44677 19.56949812 26.67343301 16.91748047 29.30957031 C16.07675995 30.15013977 15.23603943 30.99070923 14.36984253 31.85675049 C13.46146637 32.75480408 12.55309021 33.65285767 11.6171875 34.578125 C10.68778351 35.5046991 9.75837952 36.43127319 8.80081177 37.38592529 C6.3359615 39.84315789 3.86516334 42.29432361 1.39306641 44.7442627 C-1.13090765 47.24773809 -3.64919388 49.75692063 -6.16796875 52.265625 C-11.10643597 57.18267525 -16.051212 62.09333788 -21 67 C-24.52344644 65.3413812 -26.79901878 63.43342692 -29.546875 60.6484375 C-30.39121094 59.79765625 -31.23554688 58.946875 -32.10546875 58.0703125 C-32.97816406 57.18085937 -33.85085938 56.29140625 -34.75 55.375 C-36.08224609 54.02921875 -36.08224609 54.02921875 -37.44140625 52.65625 C-39.63216969 50.44192996 -41.81812763 48.22307565 -44 46 C-42.51657 42.55323 -40.56949812 40.32656699 -37.91748047 37.69042969 C-36.65639969 36.4295755 -36.65639969 36.4295755 -35.36984253 35.14324951 C-34.46146637 34.24519592 -33.55309021 33.34714233 -32.6171875 32.421875 C-31.68778351 31.4953009 -30.75837952 30.56872681 -29.80081177 29.61407471 C-27.3359615 27.15684211 -24.86516334 24.70567639 -22.39306641 22.2557373 C-19.86909235 19.75226191 -17.35080612 17.24307937 -14.83203125 14.734375 C-9.89356403 9.81732475 -4.948788 4.90666212 0 0 Z " fill="#000000" transform="translate(474,44)"/>
<path d="M0 0 C3.44677 1.48343 5.67343301 3.43050188 8.30957031 6.08251953 C9.5704245 7.34360031 9.5704245 7.34360031 10.85675049 8.63015747 C11.75480408 9.53853363 12.65285767 10.44690979 13.578125 11.3828125 C14.5046991 12.31221649 15.43127319 13.24162048 16.38592529 14.19918823 C18.84315789 16.6640385 21.29432361 19.13483666 23.7442627 21.60693359 C26.24773809 24.13090765 28.75692063 26.64919388 31.265625 29.16796875 C36.18267525 34.10643597 41.09333788 39.051212 46 44 C44.3413812 47.52344644 42.43342692 49.79901878 39.6484375 52.546875 C38.79765625 53.39121094 37.946875 54.23554687 37.0703125 55.10546875 C36.18085937 55.97816406 35.29140625 56.85085937 34.375 57.75 C33.4778125 58.63816406 32.580625 59.52632812 31.65625 60.44140625 C29.44192996 62.63216969 27.22307565 64.81812763 25 67 C21.55323 65.51657 19.32656699 63.56949812 16.69042969 60.91748047 C15.84986023 60.07675995 15.00929077 59.23603943 14.14324951 58.36984253 C13.24519592 57.46146637 12.34714233 56.55309021 11.421875 55.6171875 C10.4953009 54.68778351 9.56872681 53.75837952 8.61407471 52.80081177 C6.15684211 50.3359615 3.70567639 47.86516334 1.2557373 45.39306641 C-1.24773809 42.86909235 -3.75692063 40.35080612 -6.265625 37.83203125 C-11.18267525 32.89356403 -16.09333788 27.948788 -21 23 C-19.3413812 19.47655356 -17.43342692 17.20098122 -14.6484375 14.453125 C-13.79765625 13.60878906 -12.946875 12.76445313 -12.0703125 11.89453125 C-11.18085938 11.02183594 -10.29140625 10.14914063 -9.375 9.25 C-8.4778125 8.36183594 -7.580625 7.47367188 -6.65625 6.55859375 C-4.44192996 4.36783031 -2.22307565 2.18187237 0 0 Z " fill="#000000" transform="translate(36,44)"/>
<path d="M0 0 C3.37632331 1.46801828 5.6188929 3.35100248 8.23364258 5.92724609 C9.05741898 6.7350351 9.88119537 7.5428241 10.72993469 8.37509155 C11.60925156 9.24904572 12.48856842 10.12299988 13.39453125 11.0234375 C14.75465584 12.37001938 14.75465584 12.37001938 16.14225769 13.74380493 C18.05555303 15.64259757 19.96628824 17.54365053 21.8737793 19.44824219 C24.32132955 21.89038879 26.78465644 24.31594043 29.25217152 26.73789024 C31.6022951 29.05118765 33.9347403 31.38218148 36.26953125 33.7109375 C37.15896927 34.5808432 38.04840729 35.4507489 38.96479797 36.34701538 C39.77281357 37.1611087 40.58082916 37.97520203 41.41333008 38.81396484 C42.13184647 39.52741058 42.85036285 40.24085632 43.59065247 40.97592163 C45 43 45 43 44.83630371 45.12324524 C42.75901344 49.78490625 38.24855486 53.26188047 34.6875 56.8125 C33.81931641 57.70904297 32.95113281 58.60558594 32.05664062 59.52929688 C30.7969043 60.79290039 30.7969043 60.79290039 29.51171875 62.08203125 C28.74303467 62.85780518 27.97435059 63.6335791 27.18237305 64.43286133 C25 66 25 66 23.13294983 65.8460083 C20.3341445 64.73589661 18.80984278 63.16957027 16.69042969 61.03100586 C15.84986023 60.19020981 15.00929077 59.34941376 14.14324951 58.48313904 C13.24519592 57.56960159 12.34714233 56.65606415 11.421875 55.71484375 C10.4953009 54.78402481 9.56872681 53.85320587 8.61407471 52.8941803 C6.15460013 50.42326879 3.70426899 47.94348031 1.2557373 45.46173096 C-1.24592051 42.92934747 -3.75612622 40.4054687 -6.265625 37.88085938 C-11.18548013 32.92886047 -16.09572753 27.96743051 -21 23 C-19.3413812 19.47655356 -17.43342692 17.20098122 -14.6484375 14.453125 C-13.79765625 13.60878906 -12.946875 12.76445312 -12.0703125 11.89453125 C-11.18085938 11.02183594 -10.29140625 10.14914063 -9.375 9.25 C-8.4778125 8.36183594 -7.580625 7.47367188 -6.65625 6.55859375 C-4.44192996 4.36783031 -2.22307565 2.18187237 0 0 Z " fill="#000000" transform="translate(451,219)"/>
<path d="M0 0 C3.52344644 1.6586188 5.79901878 3.56657308 8.546875 6.3515625 C9.81337891 7.62773437 9.81337891 7.62773437 11.10546875 8.9296875 C12.41451172 10.26386719 12.41451172 10.26386719 13.75 11.625 C14.63816406 12.5221875 15.52632812 13.419375 16.44140625 14.34375 C18.63216969 16.55807004 20.81812763 18.77692435 23 21 C21.53198172 24.37632331 19.64899752 26.6188929 17.07275391 29.23364258 C16.2649649 30.05741898 15.4571759 30.88119537 14.62490845 31.72993469 C13.75095428 32.60925156 12.87700012 33.48856842 11.9765625 34.39453125 C10.62998062 35.75465584 10.62998062 35.75465584 9.25619507 37.14225769 C7.35740243 39.05555303 5.45634947 40.96628824 3.55175781 42.8737793 C1.10961121 45.32132955 -1.31594043 47.78465644 -3.73789024 50.25217152 C-6.05118765 52.6022951 -8.38218148 54.9347403 -10.7109375 57.26953125 C-11.5808432 58.15896927 -12.4507489 59.04840729 -13.34701538 59.96479797 C-14.1611087 60.77281357 -14.97520203 61.58082916 -15.81396484 62.41333008 C-16.52741058 63.13184647 -17.24085632 63.85036285 -17.97592163 64.59065247 C-20 66 -20 66 -22.12324524 65.83630371 C-26.78490625 63.75901344 -30.26188047 59.24855486 -33.8125 55.6875 C-34.70904297 54.81931641 -35.60558594 53.95113281 -36.52929688 53.05664062 C-37.37169922 52.21681641 -38.21410156 51.37699219 -39.08203125 50.51171875 C-39.85780518 49.74303467 -40.6335791 48.97435059 -41.43286133 48.18237305 C-43 46 -43 46 -42.8460083 44.13294983 C-41.73589661 41.3341445 -40.16957027 39.80984278 -38.03100586 37.69042969 C-37.19020981 36.84986023 -36.34941376 36.00929077 -35.48313904 35.14324951 C-34.56960159 34.24519592 -33.65606415 33.34714233 -32.71484375 32.421875 C-31.31861534 31.03201385 -31.31861534 31.03201385 -29.8941803 29.61407471 C-27.42326879 27.15460013 -24.94348031 24.70426899 -22.46173096 22.2557373 C-19.92934747 19.75407949 -17.4054687 17.24387378 -14.88085938 14.734375 C-9.92886047 9.81451987 -4.96743051 4.90427247 0 0 Z " fill="#000000" transform="translate(59,219)"/>
<path d="M0 0 C20.46 0 40.92 0 62 0 C62 9.9 62 19.8 62 30 C41.54 30 21.08 30 0 30 C0 20.1 0 10.2 0 0 Z " fill="#000000" transform="translate(450,150)"/>
<path d="M0 0 C20.46 0 40.92 0 62 0 C62 9.9 62 19.8 62 30 C41.54 30 21.08 30 0 30 C0 20.1 0 10.2 0 0 Z " fill="#000000" transform="translate(0,150)"/>
<path d="M0 0 C9.9 0 19.8 0 30 0 C30 9.9 30 19.8 30 30 C20.1 30 10.2 30 0 30 C0 20.1 0 10.2 0 0 Z " fill="#000000" transform="translate(241,240)"/>
</svg>
